<?xml version="1.0" encoding="utf-8"?>
<!-- Generator: Adobe Illustrator 16.0.0, SVG Export Plug-In . SVG Version: 6.00 Build 0)  -->
<!DOCTYPE svg PUBLIC "-//W3C//DTD SVG 1.1//EN" "http://www.w3.org/Graphics/SVG/1.1/DTD/svg11.dtd">
<svg version="1.1" id="Layer_1" xmlns="http://www.w3.org/2000/svg" xmlns:xlink="http://www.w3.org/1999/xlink" x="0px" y="0px"
	 width="163px" height="33px" viewBox="0 0 163 33" enable-background="new 0 0 163 33" xml:space="preserve">
<path fill="#8C923A" d="M49.384,15.384c0.915,0.012,1.786,0.018,2.614,0.018c1.416,0,2.524-0.006,3.326-0.018
	c-0.087,0.81-0.175,1.955-0.265,3.438c-0.09,1.482-0.145,2.602-0.165,3.357c-0.768,0.124-1.404,0.215-1.908,0.271
	c-0.504,0.056-1.11,0.106-1.818,0.15c-0.708,0.045-1.339,0.066-1.893,0.066c-0.908,0-1.799-0.065-2.674-0.194
	c-0.875-0.131-1.658-0.34-2.349-0.63c-0.691-0.289-1.267-0.682-1.728-1.178c-0.46-0.496-0.816-1.084-1.066-1.764
	c-0.25-0.679-0.376-1.383-0.376-2.108c0-1.199,0.337-2.313,1.012-3.341s1.644-1.841,2.91-2.441c1.265-0.6,2.9-0.899,4.903-0.899
	c1.462,0,3.082,0.157,4.858,0.47c0,0.862,0.043,1.822,0.13,2.879c-0.481-0.142-0.87-0.25-1.167-0.323
	c-0.297-0.074-0.645-0.142-1.042-0.204c-0.397-0.062-0.775-0.108-1.132-0.138c-0.357-0.029-0.676-0.044-0.957-0.044
	c-0.735,0-1.429,0.093-2.083,0.279s-1.217,0.473-1.688,0.86c-0.47,0.387-0.823,0.849-1.056,1.386
	c-0.234,0.538-0.351,1.104-0.351,1.701c0,0.608,0.133,1.15,0.4,1.626s0.691,0.838,1.272,1.086s1.229,0.372,1.943,0.372
	c0.594,0,1.245-0.077,1.953-0.23l0.114-1.923c-0.436-0.018-0.693-0.026-0.773-0.026l-1.064,0.009l0.07-1.09
	c0.007-0.118,0.017-0.288,0.03-0.51C49.377,16.07,49.384,15.768,49.384,15.384z"/>
<path fill="#8C923A" d="M63.462,13.428c0.889,0.167,1.718,0.438,2.486,0.813c0.769,0.374,1.386,0.821,1.853,1.341
	c0.467,0.52,0.769,1.081,0.905,1.684c0.136,0.602,0.127,1.221-0.025,1.855c-0.149,0.619-0.411,1.185-0.785,1.696
	c-0.375,0.513-0.907,0.959-1.599,1.339s-1.509,0.608-2.453,0.684c-0.944,0.076-1.911,0.021-2.9-0.165
	c-0.911-0.172-1.76-0.444-2.547-0.815c-0.788-0.372-1.414-0.816-1.877-1.332c-0.464-0.517-0.77-1.087-0.915-1.713
	c-0.146-0.625-0.143-1.253,0.009-1.883c0.151-0.629,0.434-1.204,0.848-1.724c0.414-0.521,0.975-0.952,1.684-1.296
	c0.708-0.344,1.533-0.555,2.474-0.634C61.562,13.198,62.509,13.249,63.462,13.428z M62.774,15.962
	c-0.459-0.087-0.891-0.068-1.295,0.055c-0.405,0.123-0.743,0.352-1.014,0.684s-0.458,0.715-0.563,1.147
	c-0.153,0.637-0.073,1.161,0.24,1.572c0.313,0.413,0.767,0.675,1.362,0.787c0.452,0.085,0.88,0.064,1.285-0.062
	c0.406-0.126,0.745-0.36,1.019-0.705c0.274-0.344,0.463-0.732,0.567-1.166c0.086-0.357,0.092-0.695,0.019-1.011
	c-0.074-0.315-0.253-0.592-0.538-0.826C63.572,16.203,63.211,16.044,62.774,15.962z"/>
<path fill="#8C923A" d="M69.917,22.438l0.249-1.79l0.616-6.212l0.308-4.093c1.233,0.012,2.201,0.018,2.905,0.018
	c0.583,0,1.474-0.006,2.673-0.018c0.087,0.508,0.161,0.894,0.22,1.156c0.06,0.263,0.208,0.777,0.445,1.542
	c0.236,0.765,0.426,1.427,0.569,1.985s0.358,1.514,0.645,2.867c0.294-0.927,0.562-1.726,0.803-2.393
	c0.24-0.667,0.542-1.427,0.903-2.277s0.59-1.407,0.687-1.67c0.098-0.263,0.229-0.666,0.396-1.209c1.001,0.012,1.98,0.018,2.94,0.018
	c0.654,0,1.563-0.006,2.725-0.018c-0.127,1.991-0.211,3.701-0.252,5.13c-0.086,2.8-0.129,4.726-0.129,5.777
	c0,0.218,0.006,0.614,0.02,1.188c-0.881-0.013-1.498-0.019-1.853-0.019c-0.514,0-1.143,0.006-1.89,0.019
	c0.055-0.532,0.122-1.798,0.203-3.798c0.081-1.999,0.122-3.276,0.122-3.832c0-0.242-0.008-0.579-0.021-1.01l-1.312,3.606
	l-1.886,5.033c-0.868-0.013-1.466-0.019-1.793-0.019c-0.414,0-1.048,0.006-1.903,0.019l-1.234-4.874l-0.723-2.596
	c-0.027-0.1-0.057-0.224-0.091-0.372c-0.034-0.147-0.087-0.408-0.161-0.78l-0.252,2.454l-0.333,5.033l-0.03,1.135
	c-0.922-0.013-1.509-0.019-1.763-0.019C71.373,22.419,70.772,22.425,69.917,22.438z"/>
<path fill="#8C923A" d="M89.854,15.969c0.127-0.585,0.207-0.988,0.24-1.209c0.035-0.222,0.088-0.568,0.16-1.041
	c1.924-0.373,3.576-0.559,4.959-0.559c0.787,0,1.51,0.079,2.164,0.235c0.654,0.157,1.166,0.409,1.533,0.758s0.551,0.848,0.551,1.497
	c0,0.331-0.051,1.075-0.15,2.233c-0.1,1.157-0.176,2.676-0.229,4.555c-0.656-0.013-1.307-0.019-1.955-0.019
	c-0.627,0-1.297,0.006-2.004,0.019c0.09-0.65,0.191-1.991,0.303-4.023c-0.254,0.106-0.451,0.184-0.596,0.23
	c-0.143,0.047-0.395,0.118-0.754,0.213s-0.641,0.174-0.844,0.238c-0.203,0.065-0.379,0.148-0.529,0.249s-0.258,0.204-0.32,0.31
	c-0.063,0.106-0.094,0.225-0.094,0.355c0,0.2,0.09,0.371,0.27,0.514c0.18,0.142,0.467,0.213,0.861,0.213
	c0.141,0,0.291-0.011,0.451-0.031c0.16-0.021,0.381-0.072,0.66-0.156c-0.193,0.456-0.424,1.12-0.691,1.994
	c-0.574,0.083-1.117,0.124-1.633,0.124c-0.828,0-1.516-0.102-2.068-0.306c-0.551-0.203-0.975-0.533-1.271-0.987
	c-0.297-0.455-0.445-0.91-0.445-1.364c0-0.278,0.055-0.55,0.166-0.815c0.109-0.267,0.281-0.526,0.514-0.78
	c0.234-0.254,0.508-0.471,0.822-0.651c0.314-0.18,0.742-0.35,1.287-0.51c0.543-0.159,1.232-0.31,2.066-0.451
	c0.348-0.06,0.666-0.123,0.957-0.19c0.289-0.068,0.496-0.127,0.619-0.178c0.125-0.05,0.225-0.109,0.301-0.177
	c0.078-0.068,0.133-0.139,0.166-0.213s0.051-0.152,0.051-0.234c0-0.225-0.107-0.397-0.32-0.519
	c-0.215-0.121-0.527-0.182-0.941-0.182C92.961,15.109,91.543,15.396,89.854,15.969z"/>
<path fill="#8C923A" d="M101.322,22.438l0.311-3.935l0.1-2.26c0.006-0.407,0.01-0.824,0.01-1.249c0-0.431-0.006-0.966-0.02-1.604
	c0.809,0.012,1.449,0.018,1.924,0.018c0.555,0,1.191-0.005,1.912-0.018l-0.041,1.001c0.26-0.26,0.475-0.454,0.641-0.581
	c0.168-0.127,0.357-0.242,0.572-0.345c0.213-0.104,0.438-0.18,0.67-0.23c0.234-0.05,0.479-0.076,0.732-0.076
	c0.24,0,0.508,0.03,0.803,0.089c0.006,0.644,0.023,1.175,0.049,1.595l0.07,1.365c-0.367-0.095-0.711-0.142-1.031-0.142
	c-0.4,0-0.744,0.052-1.035,0.155c-0.291,0.103-0.547,0.26-0.771,0.469c-0.223,0.21-0.402,0.472-0.535,0.784
	c-0.133,0.313-0.227,0.81-0.279,1.489c-0.055,0.679-0.08,1.456-0.08,2.33c0,0.307,0.014,0.688,0.041,1.144
	c-0.65-0.013-1.301-0.019-1.955-0.019C102.76,22.419,102.064,22.425,101.322,22.438z"/>
<path fill="#8C923A" d="M110.096,22.438c0.094-0.757,0.16-1.371,0.199-1.844c0.055-0.644,0.107-1.45,0.16-2.419l0.109-2.1
	c0.047-0.951,0.08-1.861,0.1-2.729c0.025-1.04,0.039-2.041,0.039-3.003c0.936,0.012,1.639,0.018,2.105,0.018
	c0.541,0,1.184-0.006,1.926-0.018c-0.156,1.547-0.297,3.47-0.424,5.768s-0.191,4.406-0.191,6.327
	c-0.773-0.013-1.428-0.019-1.961-0.019C111.543,22.419,110.857,22.425,110.096,22.438z M114.514,17.347l1.723-2.195l1.293-1.761
	c0.92,0.012,1.619,0.018,2.092,0.018c0.654,0,1.43-0.005,2.324-0.018l-1.992,2.292c-0.469,0.525-0.945,1.092-1.434,1.699
	c0.469,0.763,1.594,2.447,3.377,5.056c-0.781-0.013-1.486-0.019-2.115-0.019c-0.641,0-1.375,0.006-2.203,0.019l-0.621-1.109
	c-0.221-0.384-0.41-0.706-0.57-0.966c-0.061-0.106-0.518-0.831-1.373-2.173L114.514,17.347z"/>
<path fill="#8C923A" d="M132.852,19.761c-0.086,0.354-0.252,1.211-0.5,2.57c-0.773,0.136-1.426,0.226-1.953,0.27
	c-0.527,0.045-1.061,0.066-1.602,0.066c-0.795,0-1.527-0.049-2.195-0.146c-0.666-0.098-1.242-0.271-1.727-0.519
	c-0.484-0.247-0.891-0.556-1.217-0.925c-0.328-0.368-0.576-0.807-0.746-1.314c-0.172-0.507-0.256-1.03-0.256-1.567
	c0-0.755,0.17-1.494,0.512-2.217c0.34-0.724,0.777-1.288,1.316-1.695c0.537-0.407,1.156-0.696,1.857-0.868
	c0.701-0.171,1.418-0.257,2.154-0.257c0.762,0,1.486,0.079,2.178,0.235c0.691,0.157,1.277,0.43,1.758,0.82
	c0.48,0.39,0.824,0.83,1.027,1.32s0.305,1.02,0.305,1.587c0,0.336-0.043,0.712-0.131,1.124l-7.02,0.01
	c-0.008,0.094-0.012,0.179-0.012,0.256c0,0.635,0.258,1.103,0.773,1.402c0.514,0.301,1.141,0.45,1.883,0.45
	c0.439,0,0.941-0.045,1.506-0.137S132.025,19.979,132.852,19.761z M126.693,16.899h3.305c0.006-0.101,0.01-0.187,0.01-0.258
	c0-0.307-0.063-0.569-0.186-0.788s-0.301-0.378-0.531-0.479c-0.229-0.101-0.488-0.15-0.775-0.15c-0.201,0-0.395,0.027-0.58,0.084
	c-0.188,0.056-0.357,0.139-0.508,0.248c-0.148,0.109-0.273,0.234-0.375,0.377c-0.1,0.142-0.174,0.278-0.219,0.412
	C126.785,16.479,126.738,16.663,126.693,16.899z"/>
<path fill="#8C923A" d="M142.527,19.832c-0.119,0.496-0.223,0.98-0.311,1.453l-0.219,1.081c-0.662,0.13-1.178,0.213-1.549,0.248
	s-0.729,0.053-1.076,0.053c-0.568,0-1.072-0.043-1.514-0.128c-0.439-0.086-0.807-0.242-1.102-0.47
	c-0.293-0.228-0.492-0.489-0.6-0.784c-0.107-0.296-0.16-0.608-0.16-0.939c0-0.059,0.002-0.164,0.01-0.314
	c0.006-0.15,0.029-0.486,0.07-1.006l0.219-3.065h-1.561c0.031-0.408,0.063-0.945,0.09-1.613l0.029-0.824h1.66
	c0.039-0.271,0.088-0.865,0.148-1.781l1.715-0.31c0.314-0.053,0.982-0.189,2.006-0.408c-0.047,0.774-0.08,1.607-0.102,2.499h2.285
	c-0.053,1.229-0.08,2.042-0.08,2.437h-2.305l-0.121,2.215c-0.014,0.331-0.02,0.544-0.02,0.638c0,0.283,0.035,0.521,0.105,0.709
	c0.068,0.189,0.193,0.325,0.369,0.408c0.178,0.082,0.373,0.124,0.588,0.124c0.16,0,0.326-0.011,0.5-0.031
	S142.088,19.938,142.527,19.832z"/>
<path fill="#8C923A" d="M152.189,16.305l-0.162-2.439c0,0-6.098-1.073-7.344,0.88c-1.246,1.953,0.07,3.141,0.801,3.78
	c1.078,0.941,5.229,4.25-0.686,4.926c-5.246,0.6-126.09-0.13-126.09-0.13l-2.229,0.978l128.32,0.151c0,0,11.432,0.241,4.959-5.928
	C145.551,14.515,152.189,16.305,152.189,16.305z"/>
<polyline fill="none" stroke="#8C923A" stroke-width="3" stroke-miterlimit="10" points="33.711,22.406 33.711,12.823 
	34.746,12.823 25.748,8.548 16.479,12.147 18.054,12.147 17.979,24.299 "/>
<path fill="none" stroke="#8C923A" stroke-width="4" stroke-miterlimit="10" d="M33.696,23.714"/>
<path fill="none" stroke="#8C923A" stroke-width="4" stroke-miterlimit="10" d="M17.979,23.714"/>
<rect x="21.638" y="14.276" fill="none" stroke="#8C923A" stroke-linejoin="round" stroke-miterlimit="10" width="2.399" height="2.398"/>
<polyline fill="none" stroke="#8C923A" stroke-linejoin="round" stroke-miterlimit="10" points="27.177,23.714 27.177,16.336 
	30.506,16.336 30.521,22.406 "/>
<path fill="none" stroke="#8C923A" stroke-width="2" stroke-miterlimit="10" d="M27.177,23.714"/>
</svg>
